<?xml version="1.0" encoding="UTF-8"?> <svg xmlns="http://www.w3.org/2000/svg" width="213" height="77" viewBox="0 0 213 77" fill="none"> <path d="M64.397 61.5776L50.6509 38.5035L64.397 15.4223L71.0372 38.5035L64.397 61.5776ZM33.7576 59.3687L16.4691 42.253H43.9895L57.7286 65.3342L33.7576 59.3687ZM33.7576 17.6382L57.7004 11.6727L43.9613 34.7539H16.4409L33.7576 17.6382ZM68.9344 0.311523L37.6387 8.42969L33.0096 16.3579L23.6103 16.2876L0.697754 38.5035L23.6103 60.7124L33.0025 60.642L37.6457 68.5632L68.9344 76.6673L77.3175 46.3332L72.5544 38.4753L77.3175 30.6245L68.9344 0.311523Z" fill="white"></path> <path d="M139.923 22.8154C135.739 22.8154 132.937 24.539 130.842 27.8172H130.651V23.6455H123.348V54.1977H130.842V36.871C130.842 32.6993 133.474 29.8362 137.058 29.8362C140.46 29.8362 143 31.8481 143 35.464V54.2188H150.501V34.247C150.501 27.578 146.267 22.8154 139.916 22.8154" fill="white"></path> <path d="M111.937 41.2611C111.937 45.3131 109.608 48.1692 105.784 48.1692C102.319 48.1692 100.139 46.2065 100.139 42.6329V23.6389H92.6445V44.0398C92.6445 50.7088 96.4621 55.0563 103.279 55.0563C107.576 55.0563 109.968 53.4453 112.057 50.6455H112.233V54.1559H119.445V23.6318H111.937V41.2611Z" fill="white"></path> <path d="M161.933 23.6465H154.432V54.1986H161.933V23.6465Z" fill="white"></path> <path d="M161.933 14.1211H154.432V20.2625H161.933V14.1211Z" fill="white"></path> <path d="M204.307 23.6465L199.854 37.4066C198.895 40.2205 198.062 44.0756 198.062 44.0756H197.871C197.871 44.0756 196.855 40.2064 195.895 37.4066L190.864 23.6465H182.869L191.118 45.384C192.847 50.034 193.447 51.9967 193.447 53.664C193.447 56.1684 192.127 57.8356 188.902 57.8356H186.038V64.2092H190.815C197.032 64.2092 199.184 61.7611 201.52 54.9725L212.323 23.6465H204.307Z" fill="white"></path> <path d="M175.897 45.2079V29.0278H180.675V23.6462H175.897V14.1211H168.453V23.6462H164.219V29.0067H168.453V46.9314C168.453 52.714 172.814 54.2617 176.758 54.2617C178.126 54.2939 179.494 54.254 180.858 54.1421V48.2329C180.858 48.2329 179.962 48.2329 178.946 48.2329C177.153 48.2329 175.897 47.459 175.897 45.1938" fill="white"></path> </svg> 